The.Dark.Knight.Rises.2012.BRRip.XviD.AC3-Atilla82



 
http://www.imdb.com/title/tt1345836/


Eight years on, a new terrorist leader, Bane, 
overwhelms Gotham's finest, and the Dark Knight 
resurfaces to protect a city that has branded 
him an enemy.


subtitles: 
Arab, Chinese, Croatian, Czech, Danish, English, 
Spanish, Farsi, Finnish, French, Greek, Hebrew, Italian, 
Dutch, Polish, Portuguese, Thai, Turkish (.srt)



General
Complete name : The.Dark.Knight.Rises.2012.BRRip.XviD.AC3-Atilla82.avi
Format : AVI
Format/Info : Audio Video Interleave
File size : 1.74 GiB
Duration : 2h 44mn
Overall bit rate : 1 518 Kbps
Writing application : VirtualDubMod 1.5.10.2 (build 2540/release)
Writing library : VirtualDubMod build 2540/release

Video
ID : 0
Format : MPEG-4 Visual
Format profile : Advanced Simple@L5
Format settings, BVOP : 4
Format settings, QPel : No
Format settings, GMC : No warppoints
Format settings, Matrix : Default (H.263)
Muxing mode : Packed bitstream
Codec ID : XVID
Codec ID/Hint : XviD
Duration : 2h 44mn
Bit rate : 1 060 Kbps
Width : 720 pixels
Height : 400 pixels
Display aspect ratio : 16:9
Frame rate : 23.976 fps
Color space : YUV
Chroma subsampling : 4:2:0
Bit depth : 8 bits
Scan type : Progressive
Compression mode : Lossy
Bits/(Pixel*Frame) : 0.154
Stream size : 1.22 GiB (70%)
Writing library : XviD 64

Audio
ID : 1
Format : AC-3
Format/Info : Audio Coding 3
Mode extension : CM (complete main)
Format settings, Endianness : Big
Codec ID : 2000
Duration : 2h 44mn
Bit rate mode : Constant
Bit rate : 448 Kbps
Channel(s) : 6 channels
Channel positions : Front: L C R, Side: L R, LFE
Sampling rate : 48.0 KHz
Bit depth : 16 bits
Compression mode : Lossy
Stream size : 527 MiB (30%)
Alignment : Split accross interleaves
Interleave, duration : 42 ms (1.00 video frame)
Interleave, preload duration : 500 ms



SCREENSHOTS 
http://www.pohrani.com/f/3i/W4/2jqx0p2s/screenshots.jpg


